[h264 @ 0x56351af81180] Reinit context to 640x368, pix_fmt: yuv420p
Input #0, mov,mp4,m4a,3gp,3g2,mj2, from '/var/www/html/project/media/video/original/VID-20230502-WA0024.mp4':
  Metadata:
    major_brand     : mp42
    minor_version   : 0
    compatible_brands: mp42isom
  Duration: 00:00:23.61, start: 0.000000, bitrate: 2099 kb/s
    Stream #0:0(und): Video: h264 (Baseline), 1 reference frame (avc1 / 0x31637661), yuv420p(tv, left), 640x368, 1968 kb/s, 30 fps, 30 tbr, 1000k tbn, 2000k tbc (default)
    Stream #0:1(und): Audio: aac (LC) (mp4a / 0x6134706D), 44100 Hz, stereo, fltp, 128 kb/s (default)
Input #1, png_pipe, from '/var/www/html/project/static/images/templates/logo.png':
  Duration: N/A, bitrate: N/A
    Stream #1:0: Video: png, 1 reference frame, rgba(pc), 1920x1080 [SAR 2835:2835 DAR 16:9], 25 tbr, 25 tbn, 25 tbc
[h264 @ 0x56351afd3780] Reinit context to 1280x720, pix_fmt: yuv420p
Input #2, mov,mp4,m4a,3gp,3g2,mj2, from '/var/www/html/project/static/images/templates/Codino.mp4':
  Metadata:
    major_brand     : mp42
    minor_version   : 1
    compatible_brands: isommp41mp42
    creation_time   : 2021-07-11T07:02:58.000000Z
  Duration: 00:00:02.00, start: 0.000000, bitrate: 1007 kb/s
    Stream #2:0(ita): Audio: aac (LC) (mp4a / 0x6134706D), 44100 Hz, stereo, fltp, 102 kb/s (default)
    Metadata:
      creation_time   : 2021-07-11T07:02:58.000000Z
      handler_name    : Core Media Audio
    Stream #2:1(und): Video: h264 (High), 1 reference frame (avc1 / 0x31637661), yuv420p(tv, bt709, progressive, left), 1280x720 [SAR 1:1 DAR 16:9], 813 kb/s, 25 fps, 25 tbr, 25k tbn, 50k tbc (default)
    Metadata:
      creation_time   : 2021-07-11T07:02:58.000000Z
      handler_name    : Core Media Video
[Parsed_scale_0 @ 0x56351b087c80] w:1280 h:720 flags:'bilinear' interl:0
[Parsed_scale_2 @ 0x56351b055b80] w:1280 h:720 flags:'bilinear' interl:0
[Parsed_scale_4 @ 0x56351b054740] w:1280 h:720 flags:'bilinear' interl:0
Stream mapping:
  Stream #0:0 (h264) -> scale
  Stream #0:1 (aac) -> concat:in0:a0
  Stream #1:0 (png) -> scale
  Stream #2:0 (aac) -> concat:in1:a0
  Stream #2:1 (h264) -> scale
  concat:out:v0 -> Stream #0:0 (libx264)
  concat:out:a0 -> Stream #0:1 (aac)
Press [q] to stop, [?] for help
[h264 @ 0x56351afc2b00] Reinit context to 640x368, pix_fmt: yuv420p
[h264 @ 0x56351b42ca00] Reinit context to 1280x720, pix_fmt: yuv420p
[Parsed_scale_0 @ 0x56351be541c0] w:1280 h:720 flags:'bilinear' interl:0
[Parsed_scale_2 @ 0x56351be5c6c0] w:1280 h:720 flags:'bilinear' interl:0
[Parsed_scale_4 @ 0x56351be5d680] w:1280 h:720 flags:'bilinear' interl:0
[graph 0 input from stream 0:0 @ 0x56351be61f40] w:640 h:368 pixfmt:yuv420p tb:1/1000000 fr:30/1 sar:0/1 sws_param:flags=2
[graph 0 input from stream 1:0 @ 0x56351be63000] w:1920 h:1080 pixfmt:rgba tb:1/25 fr:25/1 sar:2835/2835 sws_param:flags=2
[graph 0 input from stream 2:1 @ 0x56351be64080] w:1280 h:720 pixfmt:yuv420p tb:1/25000 fr:25/1 sar:1/1 sws_param:flags=2
[graph_0_in_0_1 @ 0x56351be65040] tb:1/44100 samplefmt:fltp samplerate:44100 chlayout:0x3
[graph_0_in_2_0 @ 0x56351be66180] tb:1/44100 samplefmt:fltp samplerate:44100 chlayout:0x3
[Parsed_scale_0 @ 0x56351be541c0] w:640 h:368 fmt:yuv420p sar:0/1 -> w:1280 h:720 fmt:yuv420p sar:0/1 flags:0x2
[Parsed_setsar_1 @ 0x56351b059380] w:1280 h:720 sar:0/1 dar:16/9 -> sar:1/1 dar:16/9
[Parsed_scale_2 @ 0x56351be5c6c0] w:1920 h:1080 fmt:rgba sar:2835/2835 -> w:1280 h:720 fmt:yuva420p sar:1/1 flags:0x2
[Parsed_setsar_3 @ 0x56351be5cb80] w:1280 h:720 sar:1/1 dar:16/9 -> sar:1/1 dar:16/9
[Parsed_overlay_6 @ 0x56351be5edc0] main w:1280 h:720 fmt:yuv420p overlay w:1280 h:720 fmt:yuva420p
[Parsed_overlay_6 @ 0x56351be5edc0] [framesync @ 0x56351be5ef28] Selected 1/1000000 time base
[Parsed_overlay_6 @ 0x56351be5edc0] [framesync @ 0x56351be5ef28] Sync level 2
[Parsed_scale_4 @ 0x56351be5d680] w:1280 h:720 fmt:yuv420p sar:1/1 -> w:1280 h:720 fmt:yuv420p sar:1/1 flags:0x2
[Parsed_setsar_5 @ 0x56351be5e1c0] w:1280 h:720 sar:1/1 dar:16/9 -> sar:1/1 dar:16/9
[libx264 @ 0x56351afc3000] using SAR=1/1
[libx264 @ 0x56351afc3000] using cpu capabilities: MMX2 SSE2Fast SSSE3 SSE4.2 AVX FMA3 BMI2 AVX2
[libx264 @ 0x56351afc3000] profile High, level 3.1
[libx264 @ 0x56351afc3000] 264 - core 155 r2917 0a84d98 - H.264/MPEG-4 AVC codec - Copyleft 2003-2018 - http://www.videolan.org/x264.html - options: cabac=1 ref=1 deblock=1:0:0 analyse=0x3:0x113 me=hex subme=2 psy=1 psy_rd=1.00:0.00 mixed_ref=0 me_range=16 chroma_me=1 trellis=0 8x8dct=1 cqm=0 deadzone=21,11 fast_pskip=1 chroma_qp_offset=0 threads=22 lookahead_threads=5 sliced_threads=0 nr=0 decimate=1 interlaced=0 bluray_compat=0 constrained_intra=0 bframes=3 b_pyramid=2 b_adapt=1 b_bias=0 direct=1 weightb=1 open_gop=0 weightp=1 keyint=250 keyint_min=25 scenecut=40 intra_refresh=0 rc_lookahead=10 rc=crf mbtree=1 crf=18.0 qcomp=0.60 qpmin=0 qpmax=69 qpstep=4 ip_ratio=1.40 aq=1:1.00
Output #0, mp4, to '/var/www/html/project/media/video/watermarks/VID-20230502-WA0024.mp4':
  Metadata:
    major_brand     : mp42
    minor_version   : 0
    compatible_brands: mp42isom
    encoder         : Lavf58.29.100
    Stream #0:0: Video: h264 (libx264), 1 reference frame (avc1 / 0x31637661), yuv420p(progressive), 1280x720 [SAR 1:1 DAR 16:9], q=-1--1, 30 fps, 15360 tbn, 30 tbc (default)
    Metadata:
      encoder         : Lavc58.54.100 libx264
    Side data:
      cpb: bitrate max/min/avg: 0/0/0 buffer size: 0 vbv_delay: -1
    Stream #0:1: Audio: aac (LC) (mp4a / 0x6134706D), 44100 Hz, stereo, fltp, delay 1024, 128 kb/s (default)
    Metadata:
      encoder         : Lavc58.54.100 aac
[Parsed_overlay_6 @ 0x56351be5edc0] [framesync @ 0x56351be5ef28] Sync level 0
[Parsed_concat_7 @ 0x56351be5ffc0] EOF on in0:v0, 1 streams left in segment.
[Parsed_concat_7 @ 0x56351be5ffc0] EOF on in0:a0, 0 streams left in segment.
[Parsed_concat_7 @ 0x56351be5ffc0] Segment finished at pts=23614694
[Parsed_concat_7 @ 0x56351be5ffc0] EOF on in1:a0, 1 streams left in segment.
[Parsed_concat_7 @ 0x56351be5ffc0] EOF on in1:v0, 0 streams left in segment.
[Parsed_concat_7 @ 0x56351be5ffc0] Segment finished at pts=25633379
No more output streams to write to, finishing.
frame=  758 fps= 86 q=-1.0 Lsize=   11289kB time=00:00:25.63 bitrate=3607.6kbits/s speed=2.92x    
[AVIOContext @ 0x56351af7f440] Statistics: 0 seeks, 18 writeouts
video:10867kB audio:396kB subtitle:0kB other streams:0kB global headers:0kB muxing overhead: 0.231792%
Input file #0 (/var/www/html/project/media/video/original/VID-20230502-WA0024.mp4):
  Input stream #0:0 (video): 708 packets read (5807033 bytes); 708 frames decoded; 
  Input stream #0:1 (audio): 1017 packets read (378224 bytes); 1017 frames decoded (1041408 samples); 
  Total: 1725 packets (6185257 bytes) demuxed
Input file #1 (/var/www/html/project/static/images/templates/logo.png):
  Input stream #1:0 (video): 1 packets read (111578 bytes); 1 frames decoded; 
  Total: 1 packets (111578 bytes) demuxed
Input file #2 (/var/www/html/project/static/images/templates/Codino.mp4):
  Input stream #2:0 (audio): 89 packets read (26579 bytes); 87 frames decoded (89024 samples); 
  Input stream #2:1 (video): 50 packets read (203365 bytes); 50 frames decoded; 
  Total: 139 packets (229944 bytes) demuxed
Output file #0 (/var/www/html/project/media/video/watermarks/VID-20230502-WA0024.mp4):
  Output stream #0:0 (video): 758 frames encoded; 758 packets muxed (11127593 bytes); 
  Output stream #0:1 (audio): 1104 frames encoded (1130432 samples); 1105 packets muxed (405598 bytes); 
  Total: 1863 packets (11533191 bytes) muxed
[AVIOContext @ 0x56351b086c00] Statistics: 2 seeks, 47 writeouts
[libx264 @ 0x56351afc3000] frame I:5     Avg QP:14.71  size: 44736
[libx264 @ 0x56351afc3000] frame P:452   Avg QP:17.95  size: 18088
[libx264 @ 0x56351afc3000] frame B:301   Avg QP:18.71  size:  9061
[libx264 @ 0x56351afc3000] consecutive B-frames: 41.0% 12.1% 17.8% 29.0%
[libx264 @ 0x56351afc3000] mb I  I16..4: 25.1% 44.6% 30.3%
[libx264 @ 0x56351afc3000] mb P  I16..4: 14.6% 24.9%  1.9%  P16..4: 24.4% 13.5%  6.4%  0.0%  0.0%    skip:14.3%
[libx264 @ 0x56351afc3000] mb B  I16..4:  6.8%  9.0%  0.2%  B16..8: 27.0% 11.2%  0.9%  direct:11.5%  skip:33.4%  L0:49.6% L1:39.4% BI:11.1%
[libx264 @ 0x56351afc3000] 8x8 transform intra:59.0% inter:39.5%
[libx264 @ 0x56351afc3000] coded y,uvDC,uvAC intra: 41.7% 41.1% 11.6% inter: 14.7% 28.3% 1.6%
[libx264 @ 0x56351afc3000] i16 v,h,dc,p: 38% 40% 13%  9%
[libx264 @ 0x56351afc3000] i8 v,h,dc,ddl,ddr,vr,hd,vl,hu: 16% 46% 19%  3%  3%  2%  5%  2%  4%
[libx264 @ 0x56351afc3000] i4 v,h,dc,ddl,ddr,vr,hd,vl,hu: 22% 31% 13%  5%  7%  5%  8%  4%  5%
[libx264 @ 0x56351afc3000] i8c dc,h,v,p: 55% 24% 16%  5%
[libx264 @ 0x56351afc3000] Weighted P-Frames: Y:1.5% UV:0.0%
[libx264 @ 0x56351afc3000] kb/s:3477.16
[aac @ 0x56351b02b500] Qavg: 2078.348
[AVIOContext @ 0x56351af883c0] Statistics: 6197789 bytes read, 0 seeks
[AVIOContext @ 0x56351b094080] Statistics: 111578 bytes read, 0 seeks
[AVIOContext @ 0x56351af91e40] Statistics: 1530915 bytes read, 42 seeks
